<?xml version="1.0" encoding="UTF-8"?>
<svg width="64" height="64" viewBox="0 0 64 64" fill="none" xmlns="http://www.w3.org/2000/svg">
  <g>
    <path d="M32 2C15.432 2 2 15.432 2 32s13.432 30 30 30 30-13.432 30-30S48.568 2 32 2zm0 56C18.192 58 6 45.808 6 32S18.192 6 32 6s26 12.192 26 26-12.192 26-26 26z" fill="#FFD93B"/>
    <path d="M32 10a2 2 0 012 2v8a2 2 0 11-4 0v-8a2 2 0 012-2zm0 32a2 2 0 012 2v8a2 2 0 11-4 0v-8a2 2 0 012-2zm22-10a2 2 0 01-2 2h-8a2 2 0 110-4h8a2 2 0 012 2zm-32 0a2 2 0 01-2 2h-8a2 2 0 110-4h8a2 2 0 012 2zm15.071-15.071a2 2 0 012.828 0l5.657 5.657a2 2 0 11-2.828 2.828l-5.657-5.657a2 2 0 010-2.828zm-18.142 0a2 2 0 010 2.828l-5.657 5.657a2 2 0 11-2.828-2.828l5.657-5.657a2 2 0 012.828 0zm18.142 30.142a2 2 0 010 2.828l-5.657 5.657a2 2 0 11-2.828-2.828l5.657-5.657a2 2 0 012.828 0zm-18.142 0a2 2 0 012.828 0l5.657 5.657a2 2 0 11-2.828 2.828l-5.657-5.657a2 2 0 010-2.828z" fill="#F4B400"/>
    <circle cx="32" cy="32" r="8" fill="#F4B400"/>
    <circle cx="32" cy="32" r="4" fill="#FFD93B"/>
  </g>
</svg> 